<?xml version="1.0" standalone="no"?>
<!DOCTYPE svg PUBLIC "-//W3C//DTD SVG 20010904//EN"
 "http://www.w3.org/TR/2001/REC-SVG-20010904/DTD/svg10.dtd">
<svg version="1.0" xmlns="http://www.w3.org/2000/svg"
 width="24.000000pt" height="24.000000pt" viewBox="0 0 300.000000 300.000000"
 preserveAspectRatio="xMidYMid meet">
<metadata>
Created by potrace 1.10, written by Peter Selinger 2001-2011
</metadata>
<g transform="translate(0.000000,300.000000) scale(0.100000,-0.100000)"
fill="#FFFFFF" stroke="none">
<path d="M1690 2701 c-30 -9 -66 -23 -79 -30 -13 -7 -58 -14 -100 -15 -138 -4
-211 -45 -274 -154 -43 -75 -93 -102 -188 -102 -114 0 -139 -38 -103 -161 13
-46 27 -65 97 -131 90 -86 117 -98 215 -98 67 0 62 5 66 -65 1 -8 -15 -23 -34
-33 -47 -23 -70 -72 -70 -149 l0 -62 -32 10 c-18 6 -39 13 -47 15 -11 4 -10 9
6 27 11 12 23 30 26 40 9 25 -13 67 -39 73 -44 11 -278 -79 -291 -111 -8 -22
-23 -18 -23 5 0 24 -54 60 -90 60 -14 0 -40 -9 -58 -20 l-34 -21 -66 36 c-83
46 -161 107 -232 179 -58 60 -92 70 -98 30 -4 -27 98 -131 191 -198 61 -44
215 -126 236 -126 6 0 16 10 22 23 19 35 35 43 57 28 11 -7 9 -17 -10 -52 -20
-38 -23 -58 -23 -146 0 -110 -6 -121 -51 -89 -16 12 -19 27 -19 83 0 59 -2 68
-19 71 -25 5 -46 -23 -46 -60 0 -26 -2 -28 -28 -22 -59 14 -220 63 -265 80
-47 18 -49 18 -62 0 -22 -29 -8 -42 68 -71 79 -29 249 -75 277 -75 10 0 21 -9
25 -20 10 -31 61 -61 105 -62 42 0 80 23 80 49 0 19 10 17 76 -17 69 -35 153
-58 245 -66 l66 -7 6 -71 c6 -80 35 -166 75 -223 26 -38 26 -38 27 -228 0
-104 -4 -216 -8 -247 -8 -57 -9 -58 -42 -58 -24 0 -42 -9 -64 -31 -26 -26 -31
-38 -31 -79 0 -31 5 -52 16 -61 24 -20 172 -24 216 -6 37 15 37 16 97 205 34
104 64 203 67 221 4 17 9 31 12 31 2 0 20 -10 39 -21 28 -18 33 -26 29 -48 -3
-14 -10 -62 -16 -106 -18 -135 -16 -131 -66 -150 -79 -30 -130 -130 -89 -175
16 -18 31 -20 135 -20 139 0 137 -2 179 121 27 78 79 210 86 217 4 5 160 -108
163 -119 2 -5 -11 -9 -28 -9 -103 0 -204 -137 -142 -193 16 -15 52 -17 294
-17 263 0 276 1 302 21 14 11 26 27 26 35 0 7 21 33 46 56 125 115 145 307 59
565 -60 181 -146 325 -274 465 -59 64 -61 68 -61 120 -1 113 -54 273 -109 322
-39 35 -22 38 37 6 l57 -31 35 43 c19 24 50 58 68 77 45 46 40 71 -18 89 -74
22 -176 11 -245 -26 -67 -37 -85 -31 -85 27 -1 42 -21 156 -40 222 l-13 46 48
62 c26 33 63 72 82 87 28 21 34 31 31 57 -3 29 -9 34 -63 56 -36 14 -82 24
-116 25 l-57 1 30 33 c27 31 28 36 15 55 -19 30 -110 33 -187 8z m98 -48 c-26
-54 -33 -63 -52 -63 -12 0 -32 9 -46 19 l-24 19 49 15 c57 18 78 20 73 10z
m102 -88 c62 -9 130 -34 130 -49 0 -7 -14 -25 -31 -42 -51 -47 -119 -144 -119
-169 0 -13 -8 -25 -17 -28 -10 -3 -33 -15 -51 -28 l-33 -21 -38 41 c-52 57
-94 136 -94 180 0 22 10 52 24 74 22 33 27 36 56 31 26 -5 39 -1 64 20 28 24
33 25 48 12 9 -8 37 -18 61 -21z m-273 10 l36 -15 -26 -24 c-65 -61 -36 -167
83 -303 52 -59 74 -63 116 -18 22 24 36 32 38 23 11 -33 26 -119 32 -180 l6
-67 -79 -39 c-145 -74 -279 -104 -386 -88 l-45 7 -4 65 c-2 35 0 64 3 64 3 0
20 -11 39 -25 41 -30 56 -31 70 -5 29 54 -107 110 -269 110 l-66 1 55 19 c89
30 165 134 113 154 -11 5 -30 -8 -62 -43 -51 -55 -80 -66 -148 -58 -32 3 -53
13 -72 32 -17 18 -22 29 -14 32 32 12 64 48 74 84 10 33 18 41 48 49 51 14 86
45 139 125 61 91 105 115 209 115 43 0 89 -6 110 -15z m-537 -231 c0 -22 -18
-54 -48 -86 -33 -35 -38 -35 -51 3 -25 72 -8 97 67 98 23 1 32 -4 32 -15z
m1164 -352 c3 -5 -10 -23 -28 -41 -19 -18 -36 -28 -40 -23 -3 6 -29 16 -56 23
-28 7 -46 17 -42 21 19 19 156 35 166 20z m-288 -23 c4 -7 22 -9 46 -6 35 5
44 2 63 -21 27 -32 18 -67 -16 -57 -27 9 -24 0 20 -66 41 -61 75 -153 86 -229
l6 -45 -40 45 c-28 31 -40 54 -41 75 0 46 -28 146 -50 180 -20 29 -20 29 -26
8 -11 -41 -34 -27 -34 20 0 31 -6 49 -20 62 -21 19 -27 45 -11 45 6 0 13 -5
17 -11z m-25 -66 c3 -63 -3 -70 -112 -154 -99 -75 -208 -141 -298 -179 -64
-28 -77 -30 -102 -20 -22 10 -29 19 -29 40 0 29 -48 80 -75 80 -25 0 -38 40
-32 103 7 76 16 85 60 58 104 -64 301 -41 497 58 41 21 78 39 83 40 4 0 8 -11
8 -26z m-844 -131 c-27 -28 -34 -56 -19 -79 4 -7 65 -31 135 -53 86 -28 127
-45 127 -55 0 -20 -42 -19 -110 1 -48 14 -54 14 -69 0 -32 -33 31 -73 117 -75
22 -1 32 -5 29 -13 -4 -13 -76 -16 -141 -7 -19 3 -32 -2 -39 -13 -20 -31 11
-49 86 -51 53 -2 63 -4 53 -15 -10 -10 -33 -10 -123 2 -137 18 -181 30 -255
67 -32 16 -69 29 -83 29 -23 0 -25 3 -24 43 2 76 11 100 44 110 17 6 47 25 69
43 22 19 71 44 115 59 42 14 83 29 91 35 26 16 24 1 -3 -28z m919 -39 c-10
-10 -38 48 -31 64 6 14 10 10 21 -21 8 -22 12 -41 10 -43z m-76 -2 c0 -17 117
-157 231 -277 178 -188 248 -290 312 -459 51 -131 68 -223 65 -335 -3 -93 -3
-94 -12 -42 -9 55 -28 75 -49 53 -7 -7 -12 -43 -13 -84 0 -80 -11 -137 -25
-137 -5 0 -9 6 -9 13 0 26 -70 117 -91 117 -28 0 -35 -28 -16 -59 44 -71 68
-125 65 -149 l-3 -27 -257 -3 c-142 -1 -258 0 -258 3 0 16 37 58 63 71 24 13
57 15 160 12 113 -3 131 -1 140 14 18 28 -7 45 -81 51 -63 6 -69 8 -105 49
-41 47 -91 144 -101 197 -9 48 9 105 47 148 66 75 161 85 276 27 75 -37 101
-39 101 -4 0 25 -65 67 -145 93 -120 38 -238 -2 -307 -103 -17 -25 -17 -24
-17 47 -1 49 5 90 18 124 23 60 18 81 -17 77 -39 -5 -66 -87 -66 -205 0 -80
-3 -92 -18 -96 -24 -7 -24 -47 1 -54 16 -4 17 -9 8 -33 -9 -23 -14 -26 -27
-17 -42 25 -68 -24 -31 -57 25 -23 17 -45 -16 -43 -37 3 -52 -26 -29 -52 18
-20 18 -23 -19 -123 -21 -57 -39 -109 -41 -115 -4 -15 -184 -19 -184 -4 0 21
45 61 79 71 21 5 46 19 55 29 21 24 53 215 62 376 l6 110 -32 40 c-45 56 -59
93 -67 179 -6 78 -20 99 -50 74 -12 -10 -14 -29 -11 -88 5 -81 30 -151 73
-202 25 -30 36 -98 15 -98 -11 0 -111 97 -143 138 -17 22 -19 23 -43 8 -23
-16 -25 -15 -44 16 -11 18 -25 51 -31 73 -17 68 -17 68 -49 62 -28 -6 -30 -4
-44 44 -8 27 -18 76 -22 109 -7 60 -7 60 20 60 29 0 66 31 66 56 0 9 9 27 20
41 11 14 20 34 20 45 0 18 2 18 32 2 21 -11 45 -14 72 -11 62 8 249 108 351
186 87 66 115 82 115 62z m106 -58 c-8 -8 -36 17 -36 32 0 24 25 22 34 -2 4
-13 5 -27 2 -30z m-714 -643 c21 -49 24 -61 13 -70 -11 -9 -15 -4 -21 27 -4
21 -13 50 -20 65 -16 31 -17 38 -6 38 4 0 19 -27 34 -60z m150 -214 c-1 -12
-22 -84 -46 -161 -25 -77 -52 -166 -61 -197 l-16 -58 -80 0 c-72 0 -79 2 -79
20 0 25 35 43 71 36 18 -3 33 0 42 9 21 20 42 192 42 340 l0 130 65 -49 c48
-36 64 -55 62 -70z m431 38 c11 -4 12 -14 6 -47 -4 -23 -8 -45 -9 -49 0 -5 -6
-8 -13 -8 -19 0 -38 69 -24 92 13 19 18 21 40 12z m0 -203 c-2 -3 -12 4 -22
15 -15 15 -17 24 -9 44 10 25 10 24 22 -15 7 -22 11 -42 9 -44z m47 -43 c0
-13 -17 -9 -30 7 -6 8 -8 20 -4 26 5 9 11 7 21 -6 7 -11 13 -22 13 -27z m594
-72 c-19 -61 -103 -164 -112 -136 -3 7 3 17 11 22 33 18 46 39 57 92 9 46 14
53 31 49 15 -4 18 -11 13 -27z"/>
<path d="M1355 2418 c-35 -31 -49 -83 -28 -103 21 -22 35 -15 56 29 23 48 50
46 57 -4 4 -29 10 -36 32 -38 22 -3 29 2 34 22 22 88 -83 153 -151 94z"/>
<path d="M1842 2149 c1 -13 8 -23 13 -21 15 3 12 35 -3 40 -9 3 -13 -3 -10
-19z"/>
<path d="M1834 2055 c-7 -18 3 -35 22 -35 8 0 14 10 14 25 0 27 -27 35 -36 10z"/>
<path d="M1807 1843 c-15 -14 -7 -43 12 -43 20 0 35 25 25 41 -6 11 -28 12
-37 2z"/>
<path d="M1647 1793 c-4 -3 -7 -15 -7 -25 0 -21 20 -24 38 -6 18 18 15 38 -6
38 -10 0 -22 -3 -25 -7z"/>
<path d="M1490 1764 c-11 -12 -10 -18 3 -32 21 -21 42 -3 32 27 -8 25 -18 27
-35 5z"/>
<path d="M1336 1755 c-6 -18 30 -59 44 -50 15 9 12 32 -6 49 -19 20 -30 20
-38 1z"/>
<path d="M1702 1738 c-18 -18 -15 -38 6 -38 21 0 42 18 42 37 0 16 -32 17 -48
1z"/>
<path d="M1562 1688 c-7 -7 -12 -20 -12 -31 0 -13 6 -18 23 -15 16 2 22 10 22
27 0 28 -15 37 -33 19z"/>
<path d="M1413 1665 c-5 -15 21 -44 40 -45 14 0 19 30 7 45 -16 19 -39 19 -47
0z"/>
<path d="M1877 1573 c-25 -29 -22 -107 7 -170 20 -42 34 -56 73 -76 26 -14 65
-43 85 -66 53 -60 108 -54 108 12 0 46 -29 149 -52 182 -27 41 -137 123 -174
131 -22 4 -34 1 -47 -13z m120 -77 c62 -45 83 -78 104 -159 17 -70 2 -79 -53
-29 -23 21 -58 47 -76 56 -38 19 -71 82 -72 132 0 58 19 58 97 0z"/>
<path d="M2165 1360 c-8 -14 13 -50 30 -50 21 0 27 17 15 40 -11 21 -35 27
-45 10z"/>
<path d="M1913 1295 c-5 -16 22 -55 39 -55 18 0 20 31 3 50 -22 24 -34 25 -42
5z"/>
<path d="M2207 1266 c-4 -9 4 -28 18 -43 19 -23 26 -26 36 -16 10 11 9 18 -7
40 -25 33 -40 39 -47 19z"/>
<path d="M2180 1187 c0 -16 32 -47 48 -47 16 0 15 33 0 48 -16 16 -48 15 -48
-1z"/>
<path d="M2637 814 c-13 -13 -7 -46 13 -71 18 -23 60 -123 60 -143 0 -6 -7
-10 -15 -10 -17 0 -36 -31 -33 -57 0 -10 0 -35 0 -55 -2 -29 -6 -36 -17 -32
-8 3 -29 -6 -46 -20 -17 -14 -43 -29 -57 -32 -32 -8 -53 -30 -45 -50 7 -18 60
-18 97 1 35 18 36 18 36 1 0 -21 39 -31 56 -14 8 8 20 43 28 78 11 55 16 65
37 70 23 6 24 10 23 85 -1 71 -5 85 -45 164 -31 61 -50 87 -64 89 -12 2 -24 0
-28 -4z m103 -268 c0 -7 -7 -19 -15 -26 -12 -10 -15 -9 -15 7 0 11 3 23 7 26
11 12 23 8 23 -7z"/>
</g>
</svg>
